<svg xmlns="http://www.w3.org/2000/svg" version="1.1" xmlns:xlink="http://www.w3.org/1999/xlink" xmlns:svgjs="http://svgjs.dev/svgjs" viewBox="0 0 600 600"><path d="M148.4293212890625,548.1675415039062C141.36125946044922,555.6282755533854,115.4450257619222,548.1675415039062,100.5235595703125,548.1675415039062C85.6020933787028,548.1675415039062,68.84816805521648,555.235605875651,58.9005241394043,548.1675415039062C48.952880223592125,541.0994771321615,45.2879581451416,531.8062744140625,40.83769607543945,505.7591552734375C36.387434005737305,479.7120361328125,34.03141244252523,427.48691813151044,32.198951721191406,391.88482666015625C30.366490999857586,356.28273518880206,30.104711532592773,331.15184275309247,29.842931747436523,292.1466064453125C29.581151962280273,253.14137013753256,29.188482602437336,188.3507932027181,30.628273010253906,157.85340881347656C32.06806341807047,127.35602442423503,24.999998728434242,117.53926467895508,38.48167419433594,109.16230010986328C51.96334966023763,100.78533554077148,96.46597035725911,101.70156733194987,111.51832580566406,107.59162139892578C126.57068125406902,113.48167546590169,124.73821512858073,121.5968640645345,128.79580688476562,144.50262451171875C132.85339864095053,167.40838495890299,128.66492207845053,219.89529418945312,135.86387634277344,245.02618408203125C143.06283060709634,270.1570739746094,159.5549774169922,274.73822530110675,171.98953247070312,295.2879638671875C184.42408752441406,315.83770243326825,195.68063354492188,349.2146708170573,210.47120666503906,368.3246154785156C225.26177978515625,387.43456013997394,247.38218434651694,397.7748565673828,260.73297119140625,409.9476318359375C274.0837580362956,422.1204071044922,276.7015787760417,435.0785420735677,290.575927734375,441.36126708984375C304.4502766927083,447.6439921061198,331.5445098876953,455.23560587565106,343.97906494140625,447.64398193359375C356.4136199951172,440.05235799153644,362.4345703125,417.0157114664714,365.1832580566406,395.8115234375C367.93194580078125,374.6073354085286,362.1727650960286,350.13089752197266,360.47119140625,320.4188537597656C358.7696177164714,290.7068099975586,356.6753845214844,246.9895248413086,354.97381591796875,217.5392608642578C353.2722473144531,188.08899688720703,350.26177978515625,164.26700719197592,350.26177978515625,143.71726989746094C350.26177978515625,123.16753260294597,346.85863240559894,102.48690923055013,354.97381591796875,94.24083709716797C363.08899943033856,85.99476496378581,382.9842936197917,94.24083709716797,398.952880859375,94.24083709716797C414.9214680989583,94.24083709716797,442.14659627278644,82.4607327779134,450.78533935546875,94.24083709716797C459.42408243815106,106.02094141642253,449.73822021484375,140.70680363972983,450.78533935546875,164.9214630126953C451.83245849609375,189.1361223856608,455.7591552734375,213.61256154378256,457.06805419921875,239.52879333496094C458.376953125,265.44502512613934,458.2460632324219,291.49214935302734,458.63873291015625,320.4188537597656C459.0314025878906,349.3455581665039,459.2931823730469,383.246088663737,459.424072265625,413.0890197753906C459.5549621582031,442.93195088704425,460.73297119140625,478.92670186360675,459.424072265625,499.4764404296875C458.11517333984375,520.0261789957682,464.52879333496094,530.7591756184896,451.5706787109375,536.387451171875C438.61256408691406,542.0157267252604,403.141352335612,534.1623229980469,381.6753845214844,533.24609375C360.20941670735675,532.3298645019531,344.3717295328776,540.5759429931641,322.7748718261719,530.8900756835938C301.1780141194661,521.2042083740234,278.0104700724284,497.90576171875,252.09423828125,475.1308898925781C226.17800649007162,452.35601806640625,190.4450200398763,418.8481750488281,167.27748107910156,394.2408447265625C144.1099421183268,369.6335144042969,121.85863749186198,324.73822021484375,113.08900451660156,327.4869079589844C104.31937154134114,330.235595703125,109.6858622233073,381.4135996500651,114.65968322753906,410.73297119140625C119.63350423177083,440.0523427327474,137.30365753173828,480.49737548828125,142.9319305419922,503.40313720703125C148.5602035522461,526.3088989257812,155.49738311767578,540.7068074544271,148.4293212890625,548.1675415039062C141.36125946044922,555.6282755533854,115.4450257619222,548.1675415039062,100.5235595703125,548.1675415039062" fill="hsl(105, 69%, 40%)" transform="matrix(1,0,0,1,55.187692642211914,-20.244338989257812)"></path></svg>